<svg xmlns="http://www.w3.org/2000/svg" xmlns:xlink="http://www.w3.org/1999/xlink" id="terminal" baseProfile="full" viewBox="0 0 480 274" width="480" version="1.1">
    <defs>
        <termtosvg:template_settings xmlns:termtosvg="https://github.com/nbedos/termtosvg">
            <termtosvg:screen_geometry columns="60" rows="16"/>
            <termtosvg:animation type="css"/>
        </termtosvg:template_settings>
        <style type="text/css" id="generated-style"><![CDATA[#screen {
                font-family: 'DejaVu Sans Mono', monospace;
                font-style: normal;
                font-size: 14px;
            }

        text {
            dominant-baseline: text-before-edge;
            white-space: pre;
        }
    
            :root {
                --animation-duration: 20146ms;
            }

            @keyframes roll {
                0.000%{transform:translateY(0px)}
7.694%{transform:translateY(-306px)}
8.185%{transform:translateY(-612px)}
8.682%{transform:translateY(-918px)}
10.215%{transform:translateY(-1224px)}
11.441%{transform:translateY(-1530px)}
12.395%{transform:translateY(-1836px)}
13.526%{transform:translateY(-2142px)}
14.246%{transform:translateY(-2448px)}
14.981%{transform:translateY(-2754px)}
15.417%{transform:translateY(-3060px)}
17.140%{transform:translateY(-3366px)}
24.049%{transform:translateY(-3672px)}
24.327%{transform:translateY(-3978px)}
24.466%{transform:translateY(-4284px)}
25.841%{transform:translateY(-4590px)}
28.164%{transform:translateY(-4896px)}
29.192%{transform:translateY(-5202px)}
30.463%{transform:translateY(-5508px)}
31.019%{transform:translateY(-5814px)}
31.793%{transform:translateY(-6120px)}
32.210%{transform:translateY(-6426px)}
33.188%{transform:translateY(-6732px)}
34.453%{transform:translateY(-7038px)}
37.491%{transform:translateY(-7344px)}
38.390%{transform:translateY(-7650px)}
38.841%{transform:translateY(-7956px)}
39.497%{transform:translateY(-8262px)}
40.311%{transform:translateY(-8568px)}
41.979%{transform:translateY(-8874px)}
43.691%{transform:translateY(-9180px)}
46.803%{transform:translateY(-9486px)}
47.081%{transform:translateY(-9792px)}
47.697%{transform:translateY(-10098px)}
48.451%{transform:translateY(-10404px)}
49.424%{transform:translateY(-10710px)}
50.258%{transform:translateY(-11016px)}
51.469%{transform:translateY(-11322px)}
51.966%{transform:translateY(-11628px)}
52.700%{transform:translateY(-11934px)}
53.063%{transform:translateY(-12240px)}
56.572%{transform:translateY(-12546px)}
61.913%{transform:translateY(-12852px)}
62.196%{transform:translateY(-13158px)}
62.747%{transform:translateY(-13464px)}
62.965%{transform:translateY(-13770px)}
63.243%{transform:translateY(-14076px)}
64.281%{transform:translateY(-14382px)}
66.802%{transform:translateY(-14688px)}
67.691%{transform:translateY(-14994px)}
69.021%{transform:translateY(-15300px)}
69.458%{transform:translateY(-15606px)}
70.173%{transform:translateY(-15912px)}
70.530%{transform:translateY(-16218px)}
72.416%{transform:translateY(-16524px)}
72.426%{transform:translateY(-16830px)}
76.268%{transform:translateY(-17136px)}
76.645%{transform:translateY(-17442px)}
77.187%{transform:translateY(-17748px)}
78.174%{transform:translateY(-18054px)}
79.331%{transform:translateY(-18360px)}
80.378%{transform:translateY(-18666px)}
81.733%{transform:translateY(-18972px)}
82.150%{transform:translateY(-19278px)}
82.820%{transform:translateY(-19584px)}
83.138%{transform:translateY(-19890px)}
85.168%{transform:translateY(-20196px)}
85.173%{transform:translateY(-20502px)}
95.036%{transform:translateY(-20808px)}
100.000%{transform:translateY(-20808px)}
            }

            #screen_view {
                animation-duration: 20146ms;
                animation-iteration-count:infinite;
                animation-name:roll;
                animation-timing-function: steps(1,end);
                animation-fill-mode: forwards;
            }
        ]]></style>
        <style type="text/css" id="user-style">
            /* Agnoster Dark Theme (oh-my-posh inspired) */
            .foreground {fill: #e0e0e0;}
            .background {fill: #0d1117;}
            .color0 {fill: #0d1117;}   /* Black */
            .color1 {fill: #ff6b6b;}   /* Red */
            .color2 {fill: #99c794;}   /* Green */
            .color3 {fill: #fac863;}   /* Yellow */
            .color4 {fill: #6699cc;}   /* Blue */
            .color5 {fill: #c594c5;}   /* Magenta */
            .color6 {fill: #5fb3b3;}   /* Cyan */
            .color7 {fill: #d8dee9;}   /* White */
            .color8 {fill: #65737e;}    /* Bright Black */
            .color9 {fill: #ff9e7d;}    /* Bright Red */
            .color10 {fill: #a3d977;}   /* Bright Green */
            .color11 {fill: #ffd479;}   /* Bright Yellow */
            .color12 {fill: #89c0f0;}   /* Bright Blue */
            .color13 {fill: #e1c0fa;}   /* Bright Magenta */
            .color14 {fill: #88d6f7;}   /* Bright Cyan */
            .color15 {fill: #ffffff;}   /* Bright White */
            text {
              font-family: "JetBrainsMono Nerd Font";
              font-size: 14px;
              font-weight: 500;
            }
        </style>
    </defs>
    <svg id="screen" width="480" height="272" viewBox="0 0 480 272" preserveAspectRatio="xMidYMin slice"><rect class="background" height="100%" width="100%" x="0" y="0"/><defs><g id="g1"><text x="0" textLength="120" class="color4">/tmp/tiny_shell</text></g><g id="g2"><text x="0" textLength="24" class="color4">-&gt; </text><text x="24" textLength="8" class="background"> </text></g><g id="g3"><text x="0" textLength="24" class="color4">-&gt; </text><text x="24" textLength="8" class="color15">e</text><text x="32" textLength="8" class="background"> </text></g><g id="g4"><text x="0" textLength="24" class="color4">-&gt; </text><text x="24" textLength="16" class="color15">en</text><text x="40" textLength="8" class="background"> </text></g><g id="g5"><text x="0" textLength="24" class="color4">-&gt; </text><text x="24" textLength="24" class="color15">env</text><text x="48" textLength="8" class="background"> </text></g><g id="g6"><text x="0" textLength="24" class="color4">-&gt; </text><text x="24" textLength="32" class="color15">env </text><text x="56" textLength="8" class="background"> </text></g><g id="g7"><text x="0" textLength="24" class="color4">-&gt; </text><text x="24" textLength="40" class="color15">env M</text><text x="64" textLength="8" class="background"> </text></g><g id="g8"><text x="0" textLength="24" class="color4">-&gt; </text><text x="24" textLength="48" class="color15">env MY</text><text x="72" textLength="8" class="background"> </text></g><g id="g9"><text x="0" textLength="24" class="color4">-&gt; </text><text x="24" textLength="56" class="color15">env MY_</text><text x="80" textLength="8" class="background"> </text></g><g id="g10"><text x="0" textLength="24" class="color4">-&gt; </text><text x="24" textLength="64" class="color15">env MY_V</text><text x="88" textLength="8" class="background"> </text></g><g id="g11"><text x="0" textLength="24" class="color4">-&gt; </text><text x="24" textLength="72" class="color15">env MY_VA</text><text x="96" textLength="8" class="background"> </text></g><g id="g12"><text x="0" textLength="24" class="color4">-&gt; </text><text x="24" textLength="80" class="color15">env MY_VAR</text><text x="104" textLength="8" class="background"> </text></g><g id="g13"><text x="0" textLength="24" class="color4">-&gt; </text><text x="24" textLength="80" class="color15">env MY_VAR</text></g><g id="g14"><text x="0" textLength="320" class="color1">ERR: Environment variable does not exist</text></g><g id="g15"><text x="0" textLength="48" class="color1">:( -&gt; </text><text x="48" textLength="8" class="background"> </text></g><g id="g16"><text x="0" textLength="48" class="color1">:( -&gt; </text><text x="48" textLength="8" class="color15">s</text><text x="56" textLength="8" class="background"> </text></g><g id="g17"><text x="0" textLength="48" class="color1">:( -&gt; </text><text x="48" textLength="16" class="color15">se</text><text x="64" textLength="8" class="background"> </text></g><g id="g18"><text x="0" textLength="48" class="color1">:( -&gt; </text><text x="48" textLength="24" class="color15">set</text><text x="72" textLength="8" class="background"> </text></g><g id="g19"><text x="0" textLength="48" class="color1">:( -&gt; </text><text x="48" textLength="32" class="color15">set </text><text x="80" textLength="8" class="background"> </text></g><g id="g20"><text x="0" textLength="48" class="color1">:( -&gt; </text><text x="48" textLength="40" class="color15">set M</text><text x="88" textLength="8" class="background"> </text></g><g id="g21"><text x="0" textLength="48" class="color1">:( -&gt; </text><text x="48" textLength="48" class="color15">set MY</text><text x="96" textLength="8" class="background"> </text></g><g id="g22"><text x="0" textLength="48" class="color1">:( -&gt; </text><text x="48" textLength="56" class="color15">set MY_</text><text x="104" textLength="8" class="background"> </text></g><g id="g23"><text x="0" textLength="48" class="color1">:( -&gt; </text><text x="48" textLength="64" class="color15">set MY_V</text><text x="112" textLength="8" class="background"> </text></g><g id="g24"><text x="0" textLength="48" class="color1">:( -&gt; </text><text x="48" textLength="72" class="color15">set MY_VA</text><text x="120" textLength="8" class="background"> </text></g><g id="g25"><text x="0" textLength="48" class="color1">:( -&gt; </text><text x="48" textLength="80" class="color15">set MY_VAR</text><text x="128" textLength="8" class="background"> </text></g><g id="g26"><text x="0" textLength="48" class="color1">:( -&gt; </text><text x="48" textLength="88" class="color15">set MY_VAR </text><text x="136" textLength="8" class="background"> </text></g><g id="g27"><text x="0" textLength="48" class="color1">:( -&gt; </text><text x="48" textLength="96" class="color15">set MY_VAR "</text><text x="144" textLength="8" class="background"> </text></g><g id="g28"><text x="0" textLength="48" class="color1">:( -&gt; </text><text x="48" textLength="104" class="color15">set MY_VAR "H</text><text x="152" textLength="8" class="background"> </text></g><g id="g29"><text x="0" textLength="48" class="color1">:( -&gt; </text><text x="48" textLength="112" class="color15">set MY_VAR "He</text><text x="160" textLength="8" class="background"> </text></g><g id="g30"><text x="0" textLength="48" class="color1">:( -&gt; </text><text x="48" textLength="120" class="color15">set MY_VAR "Hel</text><text x="168" textLength="8" class="background"> </text></g><g id="g31"><text x="0" textLength="48" class="color1">:( -&gt; </text><text x="48" textLength="128" class="color15">set MY_VAR "Hell</text><text x="176" textLength="8" class="background"> </text></g><g id="g32"><text x="0" textLength="48" class="color1">:( -&gt; </text><text x="48" textLength="136" class="color15">set MY_VAR "Hello</text><text x="184" textLength="8" class="background"> </text></g><g id="g33"><text x="0" textLength="48" class="color1">:( -&gt; </text><text x="48" textLength="144" class="color15">set MY_VAR "Hello"</text><text x="192" textLength="8" class="background"> </text></g><g id="g34"><text x="0" textLength="48" class="color1">:( -&gt; </text><text x="48" textLength="144" class="color15">set MY_VAR "Hello"</text></g><g id="g35"><text x="0" textLength="40" class="color15">Hello</text></g><g id="g36"><text x="0" textLength="24" class="color4">-&gt; </text><text x="24" textLength="8" class="color15">u</text><text x="32" textLength="8" class="background"> </text></g><g id="g37"><text x="0" textLength="24" class="color4">-&gt; </text><text x="24" textLength="16" class="color15">un</text><text x="40" textLength="8" class="background"> </text></g><g id="g38"><text x="0" textLength="24" class="color4">-&gt; </text><text x="24" textLength="24" class="color15">uns</text><text x="48" textLength="8" class="background"> </text></g><g id="g39"><text x="0" textLength="24" class="color4">-&gt; </text><text x="24" textLength="32" class="color15">unse</text><text x="56" textLength="8" class="background"> </text></g><g id="g40"><text x="0" textLength="24" class="color4">-&gt; </text><text x="24" textLength="40" class="color15">unset</text><text x="64" textLength="8" class="background"> </text></g><g id="g41"><text x="0" textLength="24" class="color4">-&gt; </text><text x="24" textLength="48" class="color15">unset </text><text x="72" textLength="8" class="background"> </text></g><g id="g42"><text x="0" textLength="24" class="color4">-&gt; </text><text x="24" textLength="56" class="color15">unset M</text><text x="80" textLength="8" class="background"> </text></g><g id="g43"><text x="0" textLength="24" class="color4">-&gt; </text><text x="24" textLength="64" class="color15">unset MY</text><text x="88" textLength="8" class="background"> </text></g><g id="g44"><text x="0" textLength="24" class="color4">-&gt; </text><text x="24" textLength="72" class="color15">unset MY_</text><text x="96" textLength="8" class="background"> </text></g><g id="g45"><text x="0" textLength="24" class="color4">-&gt; </text><text x="24" textLength="80" class="color15">unset MY_V</text><text x="104" textLength="8" class="background"> </text></g><g id="g46"><text x="0" textLength="24" class="color4">-&gt; </text><text x="24" textLength="88" class="color15">unset MY_VA</text><text x="112" textLength="8" class="background"> </text></g><g id="g47"><text x="0" textLength="24" class="color4">-&gt; </text><text x="24" textLength="96" class="color15">unset MY_VAR</text><text x="120" textLength="8" class="background"> </text></g><g id="g48"><text x="0" textLength="24" class="color4">-&gt; </text><text x="24" textLength="96" class="color15">unset MY_VAR</text></g><g id="g49"><text x="0" textLength="8" class="background"> </text></g><g id="g50"><text x="0" textLength="48" class="color1">:( -&gt; </text><text x="48" textLength="56" class="color2">Goodbye</text></g></defs><g id="screen_view"><g><use xlink:href="#g1" y="0"/><rect x="24" y="17" width="8" height="17" class="color15"/><use xlink:href="#g2" y="17"/></g><g><use xlink:href="#g1" y="306"/><rect x="32" y="323" width="8" height="17" class="color15"/><use xlink:href="#g3" y="323"/></g><g><use xlink:href="#g1" y="612"/><rect x="40" y="629" width="8" height="17" class="color15"/><use xlink:href="#g4" y="629"/></g><g><use xlink:href="#g1" y="918"/><rect x="48" y="935" width="8" height="17" class="color15"/><use xlink:href="#g5" y="935"/></g><g><use xlink:href="#g1" y="1224"/><rect x="56" y="1241" width="8" height="17" class="color15"/><use xlink:href="#g6" y="1241"/></g><g><use xlink:href="#g1" y="1530"/><rect x="64" y="1547" width="8" height="17" class="color15"/><use xlink:href="#g7" y="1547"/></g><g><use xlink:href="#g1" y="1836"/><rect x="72" y="1853" width="8" height="17" class="color15"/><use xlink:href="#g8" y="1853"/></g><g><use xlink:href="#g1" y="2142"/><rect x="80" y="2159" width="8" height="17" class="color15"/><use xlink:href="#g9" y="2159"/></g><g><use xlink:href="#g1" y="2448"/><rect x="88" y="2465" width="8" height="17" class="color15"/><use xlink:href="#g10" y="2465"/></g><g><use xlink:href="#g1" y="2754"/><rect x="96" y="2771" width="8" height="17" class="color15"/><use xlink:href="#g11" y="2771"/></g><g><use xlink:href="#g1" y="3060"/><rect x="104" y="3077" width="8" height="17" class="color15"/><use xlink:href="#g12" y="3077"/></g><g><use xlink:href="#g1" y="3366"/><use xlink:href="#g13" y="3383"/><use xlink:href="#g14" y="3400"/><use xlink:href="#g1" y="3434"/><rect x="48" y="3451" width="8" height="17" class="color15"/><use xlink:href="#g15" y="3451"/></g><g><use xlink:href="#g1" y="3672"/><use xlink:href="#g13" y="3689"/><use xlink:href="#g14" y="3706"/><use xlink:href="#g1" y="3740"/><rect x="56" y="3757" width="8" height="17" class="color15"/><use xlink:href="#g16" y="3757"/></g><g><use xlink:href="#g1" y="3978"/><use xlink:href="#g13" y="3995"/><use xlink:href="#g14" y="4012"/><use xlink:href="#g1" y="4046"/><rect x="64" y="4063" width="8" height="17" class="color15"/><use xlink:href="#g17" y="4063"/></g><g><use xlink:href="#g1" y="4284"/><use xlink:href="#g13" y="4301"/><use xlink:href="#g14" y="4318"/><use xlink:href="#g1" y="4352"/><rect x="72" y="4369" width="8" height="17" class="color15"/><use xlink:href="#g18" y="4369"/></g><g><use xlink:href="#g1" y="4590"/><use xlink:href="#g13" y="4607"/><use xlink:href="#g14" y="4624"/><use xlink:href="#g1" y="4658"/><rect x="80" y="4675" width="8" height="17" class="color15"/><use xlink:href="#g19" y="4675"/></g><g><use xlink:href="#g1" y="4896"/><use xlink:href="#g13" y="4913"/><use xlink:href="#g14" y="4930"/><use xlink:href="#g1" y="4964"/><rect x="88" y="4981" width="8" height="17" class="color15"/><use xlink:href="#g20" y="4981"/></g><g><use xlink:href="#g1" y="5202"/><use xlink:href="#g13" y="5219"/><use xlink:href="#g14" y="5236"/><use xlink:href="#g1" y="5270"/><rect x="96" y="5287" width="8" height="17" class="color15"/><use xlink:href="#g21" y="5287"/></g><g><use xlink:href="#g1" y="5508"/><use xlink:href="#g13" y="5525"/><use xlink:href="#g14" y="5542"/><use xlink:href="#g1" y="5576"/><rect x="104" y="5593" width="8" height="17" class="color15"/><use xlink:href="#g22" y="5593"/></g><g><use xlink:href="#g1" y="5814"/><use xlink:href="#g13" y="5831"/><use xlink:href="#g14" y="5848"/><use xlink:href="#g1" y="5882"/><rect x="112" y="5899" width="8" height="17" class="color15"/><use xlink:href="#g23" y="5899"/></g><g><use xlink:href="#g1" y="6120"/><use xlink:href="#g13" y="6137"/><use xlink:href="#g14" y="6154"/><use xlink:href="#g1" y="6188"/><rect x="120" y="6205" width="8" height="17" class="color15"/><use xlink:href="#g24" y="6205"/></g><g><use xlink:href="#g1" y="6426"/><use xlink:href="#g13" y="6443"/><use xlink:href="#g14" y="6460"/><use xlink:href="#g1" y="6494"/><rect x="128" y="6511" width="8" height="17" class="color15"/><use xlink:href="#g25" y="6511"/></g><g><use xlink:href="#g1" y="6732"/><use xlink:href="#g13" y="6749"/><use xlink:href="#g14" y="6766"/><use xlink:href="#g1" y="6800"/><rect x="136" y="6817" width="8" height="17" class="color15"/><use xlink:href="#g26" y="6817"/></g><g><use xlink:href="#g1" y="7038"/><use xlink:href="#g13" y="7055"/><use xlink:href="#g14" y="7072"/><use xlink:href="#g1" y="7106"/><rect x="144" y="7123" width="8" height="17" class="color15"/><use xlink:href="#g27" y="7123"/></g><g><use xlink:href="#g1" y="7344"/><use xlink:href="#g13" y="7361"/><use xlink:href="#g14" y="7378"/><use xlink:href="#g1" y="7412"/><rect x="152" y="7429" width="8" height="17" class="color15"/><use xlink:href="#g28" y="7429"/></g><g><use xlink:href="#g1" y="7650"/><use xlink:href="#g13" y="7667"/><use xlink:href="#g14" y="7684"/><use xlink:href="#g1" y="7718"/><rect x="160" y="7735" width="8" height="17" class="color15"/><use xlink:href="#g29" y="7735"/></g><g><use xlink:href="#g1" y="7956"/><use xlink:href="#g13" y="7973"/><use xlink:href="#g14" y="7990"/><use xlink:href="#g1" y="8024"/><rect x="168" y="8041" width="8" height="17" class="color15"/><use xlink:href="#g30" y="8041"/></g><g><use xlink:href="#g1" y="8262"/><use xlink:href="#g13" y="8279"/><use xlink:href="#g14" y="8296"/><use xlink:href="#g1" y="8330"/><rect x="176" y="8347" width="8" height="17" class="color15"/><use xlink:href="#g31" y="8347"/></g><g><use xlink:href="#g1" y="8568"/><use xlink:href="#g13" y="8585"/><use xlink:href="#g14" y="8602"/><use xlink:href="#g1" y="8636"/><rect x="184" y="8653" width="8" height="17" class="color15"/><use xlink:href="#g32" y="8653"/></g><g><use xlink:href="#g1" y="8874"/><use xlink:href="#g13" y="8891"/><use xlink:href="#g14" y="8908"/><use xlink:href="#g1" y="8942"/><rect x="192" y="8959" width="8" height="17" class="color15"/><use xlink:href="#g33" y="8959"/></g><g><use xlink:href="#g1" y="9180"/><use xlink:href="#g13" y="9197"/><use xlink:href="#g14" y="9214"/><use xlink:href="#g1" y="9248"/><use xlink:href="#g34" y="9265"/><use xlink:href="#g1" y="9299"/><rect x="24" y="9316" width="8" height="17" class="color15"/><use xlink:href="#g2" y="9316"/></g><g><use xlink:href="#g1" y="9486"/><use xlink:href="#g13" y="9503"/><use xlink:href="#g14" y="9520"/><use xlink:href="#g1" y="9554"/><use xlink:href="#g34" y="9571"/><use xlink:href="#g1" y="9605"/><rect x="32" y="9622" width="8" height="17" class="color15"/><use xlink:href="#g3" y="9622"/></g><g><use xlink:href="#g1" y="9792"/><use xlink:href="#g13" y="9809"/><use xlink:href="#g14" y="9826"/><use xlink:href="#g1" y="9860"/><use xlink:href="#g34" y="9877"/><use xlink:href="#g1" y="9911"/><rect x="40" y="9928" width="8" height="17" class="color15"/><use xlink:href="#g4" y="9928"/></g><g><use xlink:href="#g1" y="10098"/><use xlink:href="#g13" y="10115"/><use xlink:href="#g14" y="10132"/><use xlink:href="#g1" y="10166"/><use xlink:href="#g34" y="10183"/><use xlink:href="#g1" y="10217"/><rect x="48" y="10234" width="8" height="17" class="color15"/><use xlink:href="#g5" y="10234"/></g><g><use xlink:href="#g1" y="10404"/><use xlink:href="#g13" y="10421"/><use xlink:href="#g14" y="10438"/><use xlink:href="#g1" y="10472"/><use xlink:href="#g34" y="10489"/><use xlink:href="#g1" y="10523"/><rect x="56" y="10540" width="8" height="17" class="color15"/><use xlink:href="#g6" y="10540"/></g><g><use xlink:href="#g1" y="10710"/><use xlink:href="#g13" y="10727"/><use xlink:href="#g14" y="10744"/><use xlink:href="#g1" y="10778"/><use xlink:href="#g34" y="10795"/><use xlink:href="#g1" y="10829"/><rect x="64" y="10846" width="8" height="17" class="color15"/><use xlink:href="#g7" y="10846"/></g><g><use xlink:href="#g1" y="11016"/><use xlink:href="#g13" y="11033"/><use xlink:href="#g14" y="11050"/><use xlink:href="#g1" y="11084"/><use xlink:href="#g34" y="11101"/><use xlink:href="#g1" y="11135"/><rect x="72" y="11152" width="8" height="17" class="color15"/><use xlink:href="#g8" y="11152"/></g><g><use xlink:href="#g1" y="11322"/><use xlink:href="#g13" y="11339"/><use xlink:href="#g14" y="11356"/><use xlink:href="#g1" y="11390"/><use xlink:href="#g34" y="11407"/><use xlink:href="#g1" y="11441"/><rect x="80" y="11458" width="8" height="17" class="color15"/><use xlink:href="#g9" y="11458"/></g><g><use xlink:href="#g1" y="11628"/><use xlink:href="#g13" y="11645"/><use xlink:href="#g14" y="11662"/><use xlink:href="#g1" y="11696"/><use xlink:href="#g34" y="11713"/><use xlink:href="#g1" y="11747"/><rect x="88" y="11764" width="8" height="17" class="color15"/><use xlink:href="#g10" y="11764"/></g><g><use xlink:href="#g1" y="11934"/><use xlink:href="#g13" y="11951"/><use xlink:href="#g14" y="11968"/><use xlink:href="#g1" y="12002"/><use xlink:href="#g34" y="12019"/><use xlink:href="#g1" y="12053"/><rect x="96" y="12070" width="8" height="17" class="color15"/><use xlink:href="#g11" y="12070"/></g><g><use xlink:href="#g1" y="12240"/><use xlink:href="#g13" y="12257"/><use xlink:href="#g14" y="12274"/><use xlink:href="#g1" y="12308"/><use xlink:href="#g34" y="12325"/><use xlink:href="#g1" y="12359"/><rect x="104" y="12376" width="8" height="17" class="color15"/><use xlink:href="#g12" y="12376"/></g><g><use xlink:href="#g1" y="12546"/><use xlink:href="#g13" y="12563"/><use xlink:href="#g14" y="12580"/><use xlink:href="#g1" y="12614"/><use xlink:href="#g34" y="12631"/><use xlink:href="#g1" y="12665"/><use xlink:href="#g13" y="12682"/><use xlink:href="#g35" y="12699"/><use xlink:href="#g1" y="12733"/><rect x="24" y="12750" width="8" height="17" class="color15"/><use xlink:href="#g2" y="12750"/></g><g><use xlink:href="#g1" y="12852"/><use xlink:href="#g13" y="12869"/><use xlink:href="#g14" y="12886"/><use xlink:href="#g1" y="12920"/><use xlink:href="#g34" y="12937"/><use xlink:href="#g1" y="12971"/><use xlink:href="#g13" y="12988"/><use xlink:href="#g35" y="13005"/><use xlink:href="#g1" y="13039"/><rect x="32" y="13056" width="8" height="17" class="color15"/><use xlink:href="#g36" y="13056"/></g><g><use xlink:href="#g1" y="13158"/><use xlink:href="#g13" y="13175"/><use xlink:href="#g14" y="13192"/><use xlink:href="#g1" y="13226"/><use xlink:href="#g34" y="13243"/><use xlink:href="#g1" y="13277"/><use xlink:href="#g13" y="13294"/><use xlink:href="#g35" y="13311"/><use xlink:href="#g1" y="13345"/><rect x="40" y="13362" width="8" height="17" class="color15"/><use xlink:href="#g37" y="13362"/></g><g><use xlink:href="#g1" y="13464"/><use xlink:href="#g13" y="13481"/><use xlink:href="#g14" y="13498"/><use xlink:href="#g1" y="13532"/><use xlink:href="#g34" y="13549"/><use xlink:href="#g1" y="13583"/><use xlink:href="#g13" y="13600"/><use xlink:href="#g35" y="13617"/><use xlink:href="#g1" y="13651"/><rect x="48" y="13668" width="8" height="17" class="color15"/><use xlink:href="#g38" y="13668"/></g><g><use xlink:href="#g1" y="13770"/><use xlink:href="#g13" y="13787"/><use xlink:href="#g14" y="13804"/><use xlink:href="#g1" y="13838"/><use xlink:href="#g34" y="13855"/><use xlink:href="#g1" y="13889"/><use xlink:href="#g13" y="13906"/><use xlink:href="#g35" y="13923"/><use xlink:href="#g1" y="13957"/><rect x="56" y="13974" width="8" height="17" class="color15"/><use xlink:href="#g39" y="13974"/></g><g><use xlink:href="#g1" y="14076"/><use xlink:href="#g13" y="14093"/><use xlink:href="#g14" y="14110"/><use xlink:href="#g1" y="14144"/><use xlink:href="#g34" y="14161"/><use xlink:href="#g1" y="14195"/><use xlink:href="#g13" y="14212"/><use xlink:href="#g35" y="14229"/><use xlink:href="#g1" y="14263"/><rect x="64" y="14280" width="8" height="17" class="color15"/><use xlink:href="#g40" y="14280"/></g><g><use xlink:href="#g1" y="14382"/><use xlink:href="#g13" y="14399"/><use xlink:href="#g14" y="14416"/><use xlink:href="#g1" y="14450"/><use xlink:href="#g34" y="14467"/><use xlink:href="#g1" y="14501"/><use xlink:href="#g13" y="14518"/><use xlink:href="#g35" y="14535"/><use xlink:href="#g1" y="14569"/><rect x="72" y="14586" width="8" height="17" class="color15"/><use xlink:href="#g41" y="14586"/></g><g><use xlink:href="#g1" y="14688"/><use xlink:href="#g13" y="14705"/><use xlink:href="#g14" y="14722"/><use xlink:href="#g1" y="14756"/><use xlink:href="#g34" y="14773"/><use xlink:href="#g1" y="14807"/><use xlink:href="#g13" y="14824"/><use xlink:href="#g35" y="14841"/><use xlink:href="#g1" y="14875"/><rect x="80" y="14892" width="8" height="17" class="color15"/><use xlink:href="#g42" y="14892"/></g><g><use xlink:href="#g1" y="14994"/><use xlink:href="#g13" y="15011"/><use xlink:href="#g14" y="15028"/><use xlink:href="#g1" y="15062"/><use xlink:href="#g34" y="15079"/><use xlink:href="#g1" y="15113"/><use xlink:href="#g13" y="15130"/><use xlink:href="#g35" y="15147"/><use xlink:href="#g1" y="15181"/><rect x="88" y="15198" width="8" height="17" class="color15"/><use xlink:href="#g43" y="15198"/></g><g><use xlink:href="#g1" y="15300"/><use xlink:href="#g13" y="15317"/><use xlink:href="#g14" y="15334"/><use xlink:href="#g1" y="15368"/><use xlink:href="#g34" y="15385"/><use xlink:href="#g1" y="15419"/><use xlink:href="#g13" y="15436"/><use xlink:href="#g35" y="15453"/><use xlink:href="#g1" y="15487"/><rect x="96" y="15504" width="8" height="17" class="color15"/><use xlink:href="#g44" y="15504"/></g><g><use xlink:href="#g1" y="15606"/><use xlink:href="#g13" y="15623"/><use xlink:href="#g14" y="15640"/><use xlink:href="#g1" y="15674"/><use xlink:href="#g34" y="15691"/><use xlink:href="#g1" y="15725"/><use xlink:href="#g13" y="15742"/><use xlink:href="#g35" y="15759"/><use xlink:href="#g1" y="15793"/><rect x="104" y="15810" width="8" height="17" class="color15"/><use xlink:href="#g45" y="15810"/></g><g><use xlink:href="#g1" y="15912"/><use xlink:href="#g13" y="15929"/><use xlink:href="#g14" y="15946"/><use xlink:href="#g1" y="15980"/><use xlink:href="#g34" y="15997"/><use xlink:href="#g1" y="16031"/><use xlink:href="#g13" y="16048"/><use xlink:href="#g35" y="16065"/><use xlink:href="#g1" y="16099"/><rect x="112" y="16116" width="8" height="17" class="color15"/><use xlink:href="#g46" y="16116"/></g><g><use xlink:href="#g1" y="16218"/><use xlink:href="#g13" y="16235"/><use xlink:href="#g14" y="16252"/><use xlink:href="#g1" y="16286"/><use xlink:href="#g34" y="16303"/><use xlink:href="#g1" y="16337"/><use xlink:href="#g13" y="16354"/><use xlink:href="#g35" y="16371"/><use xlink:href="#g1" y="16405"/><rect x="120" y="16422" width="8" height="17" class="color15"/><use xlink:href="#g47" y="16422"/></g><g><use xlink:href="#g1" y="16524"/><use xlink:href="#g13" y="16541"/><use xlink:href="#g14" y="16558"/><use xlink:href="#g1" y="16592"/><use xlink:href="#g34" y="16609"/><use xlink:href="#g1" y="16643"/><use xlink:href="#g13" y="16660"/><use xlink:href="#g35" y="16677"/><use xlink:href="#g1" y="16711"/><use xlink:href="#g48" y="16728"/><rect x="0" y="16745" width="8" height="17" class="color15"/><use xlink:href="#g49" y="16745"/></g><g><use xlink:href="#g1" y="16830"/><use xlink:href="#g13" y="16847"/><use xlink:href="#g14" y="16864"/><use xlink:href="#g1" y="16898"/><use xlink:href="#g34" y="16915"/><use xlink:href="#g1" y="16949"/><use xlink:href="#g13" y="16966"/><use xlink:href="#g35" y="16983"/><use xlink:href="#g1" y="17017"/><use xlink:href="#g48" y="17034"/><use xlink:href="#g1" y="17068"/><rect x="24" y="17085" width="8" height="17" class="color15"/><use xlink:href="#g2" y="17085"/></g><g><use xlink:href="#g1" y="17136"/><use xlink:href="#g13" y="17153"/><use xlink:href="#g14" y="17170"/><use xlink:href="#g1" y="17204"/><use xlink:href="#g34" y="17221"/><use xlink:href="#g1" y="17255"/><use xlink:href="#g13" y="17272"/><use xlink:href="#g35" y="17289"/><use xlink:href="#g1" y="17323"/><use xlink:href="#g48" y="17340"/><use xlink:href="#g1" y="17374"/><rect x="32" y="17391" width="8" height="17" class="color15"/><use xlink:href="#g3" y="17391"/></g><g><use xlink:href="#g1" y="17442"/><use xlink:href="#g13" y="17459"/><use xlink:href="#g14" y="17476"/><use xlink:href="#g1" y="17510"/><use xlink:href="#g34" y="17527"/><use xlink:href="#g1" y="17561"/><use xlink:href="#g13" y="17578"/><use xlink:href="#g35" y="17595"/><use xlink:href="#g1" y="17629"/><use xlink:href="#g48" y="17646"/><use xlink:href="#g1" y="17680"/><rect x="40" y="17697" width="8" height="17" class="color15"/><use xlink:href="#g4" y="17697"/></g><g><use xlink:href="#g1" y="17748"/><use xlink:href="#g13" y="17765"/><use xlink:href="#g14" y="17782"/><use xlink:href="#g1" y="17816"/><use xlink:href="#g34" y="17833"/><use xlink:href="#g1" y="17867"/><use xlink:href="#g13" y="17884"/><use xlink:href="#g35" y="17901"/><use xlink:href="#g1" y="17935"/><use xlink:href="#g48" y="17952"/><use xlink:href="#g1" y="17986"/><rect x="48" y="18003" width="8" height="17" class="color15"/><use xlink:href="#g5" y="18003"/></g><g><use xlink:href="#g1" y="18054"/><use xlink:href="#g13" y="18071"/><use xlink:href="#g14" y="18088"/><use xlink:href="#g1" y="18122"/><use xlink:href="#g34" y="18139"/><use xlink:href="#g1" y="18173"/><use xlink:href="#g13" y="18190"/><use xlink:href="#g35" y="18207"/><use xlink:href="#g1" y="18241"/><use xlink:href="#g48" y="18258"/><use xlink:href="#g1" y="18292"/><rect x="56" y="18309" width="8" height="17" class="color15"/><use xlink:href="#g6" y="18309"/></g><g><use xlink:href="#g1" y="18360"/><use xlink:href="#g13" y="18377"/><use xlink:href="#g14" y="18394"/><use xlink:href="#g1" y="18428"/><use xlink:href="#g34" y="18445"/><use xlink:href="#g1" y="18479"/><use xlink:href="#g13" y="18496"/><use xlink:href="#g35" y="18513"/><use xlink:href="#g1" y="18547"/><use xlink:href="#g48" y="18564"/><use xlink:href="#g1" y="18598"/><rect x="64" y="18615" width="8" height="17" class="color15"/><use xlink:href="#g7" y="18615"/></g><g><use xlink:href="#g1" y="18666"/><use xlink:href="#g13" y="18683"/><use xlink:href="#g14" y="18700"/><use xlink:href="#g1" y="18734"/><use xlink:href="#g34" y="18751"/><use xlink:href="#g1" y="18785"/><use xlink:href="#g13" y="18802"/><use xlink:href="#g35" y="18819"/><use xlink:href="#g1" y="18853"/><use xlink:href="#g48" y="18870"/><use xlink:href="#g1" y="18904"/><rect x="72" y="18921" width="8" height="17" class="color15"/><use xlink:href="#g8" y="18921"/></g><g><use xlink:href="#g1" y="18972"/><use xlink:href="#g13" y="18989"/><use xlink:href="#g14" y="19006"/><use xlink:href="#g1" y="19040"/><use xlink:href="#g34" y="19057"/><use xlink:href="#g1" y="19091"/><use xlink:href="#g13" y="19108"/><use xlink:href="#g35" y="19125"/><use xlink:href="#g1" y="19159"/><use xlink:href="#g48" y="19176"/><use xlink:href="#g1" y="19210"/><rect x="80" y="19227" width="8" height="17" class="color15"/><use xlink:href="#g9" y="19227"/></g><g><use xlink:href="#g1" y="19278"/><use xlink:href="#g13" y="19295"/><use xlink:href="#g14" y="19312"/><use xlink:href="#g1" y="19346"/><use xlink:href="#g34" y="19363"/><use xlink:href="#g1" y="19397"/><use xlink:href="#g13" y="19414"/><use xlink:href="#g35" y="19431"/><use xlink:href="#g1" y="19465"/><use xlink:href="#g48" y="19482"/><use xlink:href="#g1" y="19516"/><rect x="88" y="19533" width="8" height="17" class="color15"/><use xlink:href="#g10" y="19533"/></g><g><use xlink:href="#g1" y="19584"/><use xlink:href="#g13" y="19601"/><use xlink:href="#g14" y="19618"/><use xlink:href="#g1" y="19652"/><use xlink:href="#g34" y="19669"/><use xlink:href="#g1" y="19703"/><use xlink:href="#g13" y="19720"/><use xlink:href="#g35" y="19737"/><use xlink:href="#g1" y="19771"/><use xlink:href="#g48" y="19788"/><use xlink:href="#g1" y="19822"/><rect x="96" y="19839" width="8" height="17" class="color15"/><use xlink:href="#g11" y="19839"/></g><g><use xlink:href="#g1" y="19890"/><use xlink:href="#g13" y="19907"/><use xlink:href="#g14" y="19924"/><use xlink:href="#g1" y="19958"/><use xlink:href="#g34" y="19975"/><use xlink:href="#g1" y="20009"/><use xlink:href="#g13" y="20026"/><use xlink:href="#g35" y="20043"/><use xlink:href="#g1" y="20077"/><use xlink:href="#g48" y="20094"/><use xlink:href="#g1" y="20128"/><rect x="104" y="20145" width="8" height="17" class="color15"/><use xlink:href="#g12" y="20145"/></g><g><use xlink:href="#g13" y="20196"/><use xlink:href="#g14" y="20213"/><use xlink:href="#g1" y="20247"/><use xlink:href="#g34" y="20264"/><use xlink:href="#g1" y="20298"/><use xlink:href="#g13" y="20315"/><use xlink:href="#g35" y="20332"/><use xlink:href="#g1" y="20366"/><use xlink:href="#g48" y="20383"/><use xlink:href="#g1" y="20417"/><use xlink:href="#g13" y="20434"/><rect x="0" y="20451" width="8" height="17" class="color15"/><use xlink:href="#g49" y="20451"/></g><g><use xlink:href="#g1" y="20502"/><use xlink:href="#g34" y="20519"/><use xlink:href="#g1" y="20553"/><use xlink:href="#g13" y="20570"/><use xlink:href="#g35" y="20587"/><use xlink:href="#g1" y="20621"/><use xlink:href="#g48" y="20638"/><use xlink:href="#g1" y="20672"/><use xlink:href="#g13" y="20689"/><use xlink:href="#g14" y="20706"/><use xlink:href="#g1" y="20740"/><rect x="48" y="20757" width="8" height="17" class="color15"/><use xlink:href="#g15" y="20757"/></g><g><use xlink:href="#g1" y="20825"/><use xlink:href="#g13" y="20842"/><use xlink:href="#g35" y="20859"/><use xlink:href="#g1" y="20893"/><use xlink:href="#g48" y="20910"/><use xlink:href="#g1" y="20944"/><use xlink:href="#g13" y="20961"/><use xlink:href="#g14" y="20978"/><use xlink:href="#g1" y="21012"/><use xlink:href="#g50" y="21029"/><rect x="0" y="21063" width="8" height="17" class="color15"/><use xlink:href="#g49" y="21063"/></g></g></svg>
</svg>