<svg xmlns="http://www.w3.org/2000/svg" xmlns:xlink="http://www.w3.org/1999/xlink" id="terminal" baseProfile="full" viewBox="0 0 480 308" width="480" version="1.1">
    <defs>
        <termtosvg:template_settings xmlns:termtosvg="https://github.com/nbedos/termtosvg">
            <termtosvg:screen_geometry columns="60" rows="18"/>
            <termtosvg:animation type="css"/>
        </termtosvg:template_settings>
        <style type="text/css" id="generated-style"><![CDATA[#screen {
                font-family: 'DejaVu Sans Mono', monospace;
                font-style: normal;
                font-size: 14px;
            }

        text {
            dominant-baseline: text-before-edge;
            white-space: pre;
        }
    
            :root {
                --animation-duration: 14719ms;
            }

            @keyframes roll {
                0.000%{transform:translateY(0px)}
2.629%{transform:translateY(-340px)}
3.608%{transform:translateY(-680px)}
4.830%{transform:translateY(-1020px)}
5.428%{transform:translateY(-1360px)}
6.291%{transform:translateY(-1700px)}
7.297%{transform:translateY(-2040px)}
8.472%{transform:translateY(-2380px)}
9.063%{transform:translateY(-2720px)}
10.177%{transform:translateY(-3060px)}
12.025%{transform:translateY(-3400px)}
15.266%{transform:translateY(-3740px)}
25.206%{transform:translateY(-4080px)}
26.564%{transform:translateY(-4420px)}
27.624%{transform:translateY(-4760px)}
28.446%{transform:translateY(-5100px)}
29.642%{transform:translateY(-5440px)}
30.260%{transform:translateY(-5780px)}
31.707%{transform:translateY(-6120px)}
32.658%{transform:translateY(-6460px)}
33.229%{transform:translateY(-6800px)}
34.092%{transform:translateY(-7140px)}
34.744%{transform:translateY(-7480px)}
36.293%{transform:translateY(-7820px)}
38.630%{transform:translateY(-8160px)}
39.262%{transform:translateY(-8500px)}
40.349%{transform:translateY(-8840px)}
41.266%{transform:translateY(-9180px)}
42.279%{transform:translateY(-9520px)}
44.045%{transform:translateY(-9860px)}
45.642%{transform:translateY(-10200px)}
46.729%{transform:translateY(-10540px)}
47.245%{transform:translateY(-10880px)}
48.142%{transform:translateY(-11220px)}
48.713%{transform:translateY(-11560px)}
51.077%{transform:translateY(-11900px)}
51.919%{transform:translateY(-12240px)}
53.414%{transform:translateY(-12580px)}
54.127%{transform:translateY(-12920px)}
58.958%{transform:translateY(-13260px)}
58.971%{transform:translateY(-13600px)}
70.535%{transform:translateY(-13940px)}
71.465%{transform:translateY(-14280px)}
72.688%{transform:translateY(-14620px)}
73.198%{transform:translateY(-14960px)}
73.904%{transform:translateY(-15300px)}
74.591%{transform:translateY(-15640px)}
75.841%{transform:translateY(-15980px)}
76.350%{transform:translateY(-16320px)}
77.166%{transform:translateY(-16660px)}
77.872%{transform:translateY(-17000px)}
80.508%{transform:translateY(-17340px)}
80.515%{transform:translateY(-17680px)}
93.206%{transform:translateY(-18020px)}
100.000%{transform:translateY(-18020px)}
            }

            #screen_view {
                animation-duration: 14719ms;
                animation-iteration-count:infinite;
                animation-name:roll;
                animation-timing-function: steps(1,end);
                animation-fill-mode: forwards;
            }
        ]]></style>
        <style type="text/css" id="user-style">
            /* Agnoster Dark Theme (oh-my-posh inspired) */
            .foreground {fill: #e0e0e0;}
            .background {fill: #0d1117;}
            .color0 {fill: #0d1117;}   /* Black */
            .color1 {fill: #ff6b6b;}   /* Red */
            .color2 {fill: #99c794;}   /* Green */
            .color3 {fill: #fac863;}   /* Yellow */
            .color4 {fill: #6699cc;}   /* Blue */
            .color5 {fill: #c594c5;}   /* Magenta */
            .color6 {fill: #5fb3b3;}   /* Cyan */
            .color7 {fill: #d8dee9;}   /* White */
            .color8 {fill: #65737e;}    /* Bright Black */
            .color9 {fill: #ff9e7d;}    /* Bright Red */
            .color10 {fill: #a3d977;}   /* Bright Green */
            .color11 {fill: #ffd479;}   /* Bright Yellow */
            .color12 {fill: #89c0f0;}   /* Bright Blue */
            .color13 {fill: #e1c0fa;}   /* Bright Magenta */
            .color14 {fill: #88d6f7;}   /* Bright Cyan */
            .color15 {fill: #ffffff;}   /* Bright White */
            text {
              font-family: "JetBrainsMono Nerd Font";
              font-size: 14px;
              font-weight: 500;
            }
        </style>
    </defs>
    <svg id="screen" width="480" height="306" viewBox="0 0 480 306" preserveAspectRatio="xMidYMin slice"><rect class="background" height="100%" width="100%" x="0" y="0"/><defs><g id="g1"><text x="0" textLength="120" class="color4">/tmp/tiny_shell</text></g><g id="g2"><text x="0" textLength="24" class="color4">-&gt; </text><text x="24" textLength="8" class="background"> </text></g><g id="g3"><text x="0" textLength="24" class="color4">-&gt; </text><text x="24" textLength="8" class="color15">l</text><text x="32" textLength="8" class="background"> </text></g><g id="g4"><text x="0" textLength="24" class="color4">-&gt; </text><text x="24" textLength="16" class="color15">ls</text><text x="40" textLength="8" class="background"> </text></g><g id="g5"><text x="0" textLength="24" class="color4">-&gt; </text><text x="24" textLength="24" class="color15">lsd</text><text x="48" textLength="8" class="background"> </text></g><g id="g6"><text x="0" textLength="24" class="color4">-&gt; </text><text x="24" textLength="32" class="color15">lsdi</text><text x="56" textLength="8" class="background"> </text></g><g id="g7"><text x="0" textLength="24" class="color4">-&gt; </text><text x="24" textLength="40" class="color15">lsdir</text><text x="64" textLength="8" class="background"> </text></g><g id="g8"><text x="0" textLength="24" class="color4">-&gt; </text><text x="24" textLength="48" class="color15">lsdir </text><text x="72" textLength="8" class="background"> </text></g><g id="g9"><text x="0" textLength="24" class="color4">-&gt; </text><text x="24" textLength="56" class="color15">lsdir d</text><text x="80" textLength="8" class="background"> </text></g><g id="g10"><text x="0" textLength="24" class="color4">-&gt; </text><text x="24" textLength="64" class="color15">lsdir do</text><text x="88" textLength="8" class="background"> </text></g><g id="g11"><text x="0" textLength="24" class="color4">-&gt; </text><text x="24" textLength="72" class="color15">lsdir doc</text><text x="96" textLength="8" class="background"> </text></g><g id="g12"><text x="0" textLength="24" class="color4">-&gt; </text><text x="24" textLength="80" class="color15">lsdir docs</text><text x="104" textLength="8" class="background"> </text></g><g id="g13"><text x="0" textLength="24" class="color4">-&gt; </text><text x="24" textLength="80" class="color15">lsdir docs</text></g><g id="g14"><text x="0" textLength="16" class="color2">./</text></g><g id="g15"><text x="0" textLength="24" class="color2">../</text></g><g id="g16"><text x="0" textLength="48" class="color15">test.c</text></g><g id="g17"><text x="0" textLength="48" class="color15">main.c</text></g><g id="g18"><text x="0" textLength="120" class="color15">hello_kitty.txt</text></g><g id="g19"><text x="0" textLength="24" class="color4">-&gt; </text><text x="24" textLength="8" class="color15">d</text><text x="32" textLength="8" class="background"> </text></g><g id="g20"><text x="0" textLength="24" class="color4">-&gt; </text><text x="24" textLength="16" class="color15">de</text><text x="40" textLength="8" class="background"> </text></g><g id="g21"><text x="0" textLength="24" class="color4">-&gt; </text><text x="24" textLength="24" class="color15">del</text><text x="48" textLength="8" class="background"> </text></g><g id="g22"><text x="0" textLength="24" class="color4">-&gt; </text><text x="24" textLength="32" class="color15">dele</text><text x="56" textLength="8" class="background"> </text></g><g id="g23"><text x="0" textLength="24" class="color4">-&gt; </text><text x="24" textLength="40" class="color15">delet</text><text x="64" textLength="8" class="background"> </text></g><g id="g24"><text x="0" textLength="24" class="color4">-&gt; </text><text x="24" textLength="48" class="color15">delete</text><text x="72" textLength="8" class="background"> </text></g><g id="g25"><text x="0" textLength="24" class="color4">-&gt; </text><text x="24" textLength="56" class="color15">delete </text><text x="80" textLength="8" class="background"> </text></g><g id="g26"><text x="0" textLength="24" class="color4">-&gt; </text><text x="24" textLength="64" class="color15">delete d</text><text x="88" textLength="8" class="background"> </text></g><g id="g27"><text x="0" textLength="24" class="color4">-&gt; </text><text x="24" textLength="72" class="color15">delete do</text><text x="96" textLength="8" class="background"> </text></g><g id="g28"><text x="0" textLength="24" class="color4">-&gt; </text><text x="24" textLength="80" class="color15">delete doc</text><text x="104" textLength="8" class="background"> </text></g><g id="g29"><text x="0" textLength="24" class="color4">-&gt; </text><text x="24" textLength="88" class="color15">delete docs</text><text x="112" textLength="8" class="background"> </text></g><g id="g30"><text x="0" textLength="24" class="color4">-&gt; </text><text x="24" textLength="96" class="color15">delete docs/</text><text x="120" textLength="8" class="background"> </text></g><g id="g31"><text x="0" textLength="24" class="color4">-&gt; </text><text x="24" textLength="104" class="color15">delete docs/h</text><text x="128" textLength="8" class="background"> </text></g><g id="g32"><text x="0" textLength="24" class="color4">-&gt; </text><text x="24" textLength="112" class="color15">delete docs/he</text><text x="136" textLength="8" class="background"> </text></g><g id="g33"><text x="0" textLength="24" class="color4">-&gt; </text><text x="24" textLength="120" class="color15">delete docs/hel</text><text x="144" textLength="8" class="background"> </text></g><g id="g34"><text x="0" textLength="24" class="color4">-&gt; </text><text x="24" textLength="128" class="color15">delete docs/hell</text><text x="152" textLength="8" class="background"> </text></g><g id="g35"><text x="0" textLength="24" class="color4">-&gt; </text><text x="24" textLength="136" class="color15">delete docs/hello</text><text x="160" textLength="8" class="background"> </text></g><g id="g36"><text x="0" textLength="24" class="color4">-&gt; </text><text x="24" textLength="144" class="color15">delete docs/hello_</text><text x="168" textLength="8" class="background"> </text></g><g id="g37"><text x="0" textLength="24" class="color4">-&gt; </text><text x="24" textLength="152" class="color15">delete docs/hello_k</text><text x="176" textLength="8" class="background"> </text></g><g id="g38"><text x="0" textLength="24" class="color4">-&gt; </text><text x="24" textLength="160" class="color15">delete docs/hello_ki</text><text x="184" textLength="8" class="background"> </text></g><g id="g39"><text x="0" textLength="24" class="color4">-&gt; </text><text x="24" textLength="168" class="color15">delete docs/hello_kit</text><text x="192" textLength="8" class="background"> </text></g><g id="g40"><text x="0" textLength="24" class="color4">-&gt; </text><text x="24" textLength="176" class="color15">delete docs/hello_kitt</text><text x="200" textLength="8" class="background"> </text></g><g id="g41"><text x="0" textLength="24" class="color4">-&gt; </text><text x="24" textLength="184" class="color15">delete docs/hello_kitty</text><text x="208" textLength="8" class="background"> </text></g><g id="g42"><text x="0" textLength="24" class="color4">-&gt; </text><text x="24" textLength="192" class="color15">delete docs/hello_kitty.</text><text x="216" textLength="8" class="background"> </text></g><g id="g43"><text x="0" textLength="24" class="color4">-&gt; </text><text x="24" textLength="200" class="color15">delete docs/hello_kitty.t</text><text x="224" textLength="8" class="background"> </text></g><g id="g44"><text x="0" textLength="24" class="color4">-&gt; </text><text x="24" textLength="208" class="color15">delete docs/hello_kitty.tx</text><text x="232" textLength="8" class="background"> </text></g><g id="g45"><text x="0" textLength="24" class="color4">-&gt; </text><text x="24" textLength="216" class="color15">delete docs/hello_kitty.txt</text><text x="240" textLength="8" class="background"> </text></g><g id="g46"><text x="0" textLength="24" class="color4">-&gt; </text><text x="24" textLength="216" class="color15">delete docs/hello_kitty.txt</text></g><g id="g47"><text x="0" textLength="8" class="background"> </text></g><g id="g48"><text x="0" textLength="208" class="color2">File removed successfully.</text></g><g id="g49"><text x="0" textLength="24" class="color4">-&gt; </text><text x="24" textLength="56" class="color2">Goodbye</text></g></defs><g id="screen_view"><g><use xlink:href="#g1" y="0"/><rect x="24" y="17" width="8" height="17" class="color15"/><use xlink:href="#g2" y="17"/></g><g><use xlink:href="#g1" y="340"/><rect x="32" y="357" width="8" height="17" class="color15"/><use xlink:href="#g3" y="357"/></g><g><use xlink:href="#g1" y="680"/><rect x="40" y="697" width="8" height="17" class="color15"/><use xlink:href="#g4" y="697"/></g><g><use xlink:href="#g1" y="1020"/><rect x="48" y="1037" width="8" height="17" class="color15"/><use xlink:href="#g5" y="1037"/></g><g><use xlink:href="#g1" y="1360"/><rect x="56" y="1377" width="8" height="17" class="color15"/><use xlink:href="#g6" y="1377"/></g><g><use xlink:href="#g1" y="1700"/><rect x="64" y="1717" width="8" height="17" class="color15"/><use xlink:href="#g7" y="1717"/></g><g><use xlink:href="#g1" y="2040"/><rect x="72" y="2057" width="8" height="17" class="color15"/><use xlink:href="#g8" y="2057"/></g><g><use xlink:href="#g1" y="2380"/><rect x="80" y="2397" width="8" height="17" class="color15"/><use xlink:href="#g9" y="2397"/></g><g><use xlink:href="#g1" y="2720"/><rect x="88" y="2737" width="8" height="17" class="color15"/><use xlink:href="#g10" y="2737"/></g><g><use xlink:href="#g1" y="3060"/><rect x="96" y="3077" width="8" height="17" class="color15"/><use xlink:href="#g11" y="3077"/></g><g><use xlink:href="#g1" y="3400"/><rect x="104" y="3417" width="8" height="17" class="color15"/><use xlink:href="#g12" y="3417"/></g><g><use xlink:href="#g1" y="3740"/><use xlink:href="#g13" y="3757"/><use xlink:href="#g14" y="3774"/><use xlink:href="#g15" y="3791"/><use xlink:href="#g16" y="3808"/><use xlink:href="#g17" y="3825"/><use xlink:href="#g18" y="3842"/><use xlink:href="#g1" y="3876"/><rect x="24" y="3893" width="8" height="17" class="color15"/><use xlink:href="#g2" y="3893"/></g><g><use xlink:href="#g1" y="4080"/><use xlink:href="#g13" y="4097"/><use xlink:href="#g14" y="4114"/><use xlink:href="#g15" y="4131"/><use xlink:href="#g16" y="4148"/><use xlink:href="#g17" y="4165"/><use xlink:href="#g18" y="4182"/><use xlink:href="#g1" y="4216"/><rect x="32" y="4233" width="8" height="17" class="color15"/><use xlink:href="#g19" y="4233"/></g><g><use xlink:href="#g1" y="4420"/><use xlink:href="#g13" y="4437"/><use xlink:href="#g14" y="4454"/><use xlink:href="#g15" y="4471"/><use xlink:href="#g16" y="4488"/><use xlink:href="#g17" y="4505"/><use xlink:href="#g18" y="4522"/><use xlink:href="#g1" y="4556"/><rect x="40" y="4573" width="8" height="17" class="color15"/><use xlink:href="#g20" y="4573"/></g><g><use xlink:href="#g1" y="4760"/><use xlink:href="#g13" y="4777"/><use xlink:href="#g14" y="4794"/><use xlink:href="#g15" y="4811"/><use xlink:href="#g16" y="4828"/><use xlink:href="#g17" y="4845"/><use xlink:href="#g18" y="4862"/><use xlink:href="#g1" y="4896"/><rect x="48" y="4913" width="8" height="17" class="color15"/><use xlink:href="#g21" y="4913"/></g><g><use xlink:href="#g1" y="5100"/><use xlink:href="#g13" y="5117"/><use xlink:href="#g14" y="5134"/><use xlink:href="#g15" y="5151"/><use xlink:href="#g16" y="5168"/><use xlink:href="#g17" y="5185"/><use xlink:href="#g18" y="5202"/><use xlink:href="#g1" y="5236"/><rect x="56" y="5253" width="8" height="17" class="color15"/><use xlink:href="#g22" y="5253"/></g><g><use xlink:href="#g1" y="5440"/><use xlink:href="#g13" y="5457"/><use xlink:href="#g14" y="5474"/><use xlink:href="#g15" y="5491"/><use xlink:href="#g16" y="5508"/><use xlink:href="#g17" y="5525"/><use xlink:href="#g18" y="5542"/><use xlink:href="#g1" y="5576"/><rect x="64" y="5593" width="8" height="17" class="color15"/><use xlink:href="#g23" y="5593"/></g><g><use xlink:href="#g1" y="5780"/><use xlink:href="#g13" y="5797"/><use xlink:href="#g14" y="5814"/><use xlink:href="#g15" y="5831"/><use xlink:href="#g16" y="5848"/><use xlink:href="#g17" y="5865"/><use xlink:href="#g18" y="5882"/><use xlink:href="#g1" y="5916"/><rect x="72" y="5933" width="8" height="17" class="color15"/><use xlink:href="#g24" y="5933"/></g><g><use xlink:href="#g1" y="6120"/><use xlink:href="#g13" y="6137"/><use xlink:href="#g14" y="6154"/><use xlink:href="#g15" y="6171"/><use xlink:href="#g16" y="6188"/><use xlink:href="#g17" y="6205"/><use xlink:href="#g18" y="6222"/><use xlink:href="#g1" y="6256"/><rect x="80" y="6273" width="8" height="17" class="color15"/><use xlink:href="#g25" y="6273"/></g><g><use xlink:href="#g1" y="6460"/><use xlink:href="#g13" y="6477"/><use xlink:href="#g14" y="6494"/><use xlink:href="#g15" y="6511"/><use xlink:href="#g16" y="6528"/><use xlink:href="#g17" y="6545"/><use xlink:href="#g18" y="6562"/><use xlink:href="#g1" y="6596"/><rect x="88" y="6613" width="8" height="17" class="color15"/><use xlink:href="#g26" y="6613"/></g><g><use xlink:href="#g1" y="6800"/><use xlink:href="#g13" y="6817"/><use xlink:href="#g14" y="6834"/><use xlink:href="#g15" y="6851"/><use xlink:href="#g16" y="6868"/><use xlink:href="#g17" y="6885"/><use xlink:href="#g18" y="6902"/><use xlink:href="#g1" y="6936"/><rect x="96" y="6953" width="8" height="17" class="color15"/><use xlink:href="#g27" y="6953"/></g><g><use xlink:href="#g1" y="7140"/><use xlink:href="#g13" y="7157"/><use xlink:href="#g14" y="7174"/><use xlink:href="#g15" y="7191"/><use xlink:href="#g16" y="7208"/><use xlink:href="#g17" y="7225"/><use xlink:href="#g18" y="7242"/><use xlink:href="#g1" y="7276"/><rect x="104" y="7293" width="8" height="17" class="color15"/><use xlink:href="#g28" y="7293"/></g><g><use xlink:href="#g1" y="7480"/><use xlink:href="#g13" y="7497"/><use xlink:href="#g14" y="7514"/><use xlink:href="#g15" y="7531"/><use xlink:href="#g16" y="7548"/><use xlink:href="#g17" y="7565"/><use xlink:href="#g18" y="7582"/><use xlink:href="#g1" y="7616"/><rect x="112" y="7633" width="8" height="17" class="color15"/><use xlink:href="#g29" y="7633"/></g><g><use xlink:href="#g1" y="7820"/><use xlink:href="#g13" y="7837"/><use xlink:href="#g14" y="7854"/><use xlink:href="#g15" y="7871"/><use xlink:href="#g16" y="7888"/><use xlink:href="#g17" y="7905"/><use xlink:href="#g18" y="7922"/><use xlink:href="#g1" y="7956"/><rect x="120" y="7973" width="8" height="17" class="color15"/><use xlink:href="#g30" y="7973"/></g><g><use xlink:href="#g1" y="8160"/><use xlink:href="#g13" y="8177"/><use xlink:href="#g14" y="8194"/><use xlink:href="#g15" y="8211"/><use xlink:href="#g16" y="8228"/><use xlink:href="#g17" y="8245"/><use xlink:href="#g18" y="8262"/><use xlink:href="#g1" y="8296"/><rect x="128" y="8313" width="8" height="17" class="color15"/><use xlink:href="#g31" y="8313"/></g><g><use xlink:href="#g1" y="8500"/><use xlink:href="#g13" y="8517"/><use xlink:href="#g14" y="8534"/><use xlink:href="#g15" y="8551"/><use xlink:href="#g16" y="8568"/><use xlink:href="#g17" y="8585"/><use xlink:href="#g18" y="8602"/><use xlink:href="#g1" y="8636"/><rect x="136" y="8653" width="8" height="17" class="color15"/><use xlink:href="#g32" y="8653"/></g><g><use xlink:href="#g1" y="8840"/><use xlink:href="#g13" y="8857"/><use xlink:href="#g14" y="8874"/><use xlink:href="#g15" y="8891"/><use xlink:href="#g16" y="8908"/><use xlink:href="#g17" y="8925"/><use xlink:href="#g18" y="8942"/><use xlink:href="#g1" y="8976"/><rect x="144" y="8993" width="8" height="17" class="color15"/><use xlink:href="#g33" y="8993"/></g><g><use xlink:href="#g1" y="9180"/><use xlink:href="#g13" y="9197"/><use xlink:href="#g14" y="9214"/><use xlink:href="#g15" y="9231"/><use xlink:href="#g16" y="9248"/><use xlink:href="#g17" y="9265"/><use xlink:href="#g18" y="9282"/><use xlink:href="#g1" y="9316"/><rect x="152" y="9333" width="8" height="17" class="color15"/><use xlink:href="#g34" y="9333"/></g><g><use xlink:href="#g1" y="9520"/><use xlink:href="#g13" y="9537"/><use xlink:href="#g14" y="9554"/><use xlink:href="#g15" y="9571"/><use xlink:href="#g16" y="9588"/><use xlink:href="#g17" y="9605"/><use xlink:href="#g18" y="9622"/><use xlink:href="#g1" y="9656"/><rect x="160" y="9673" width="8" height="17" class="color15"/><use xlink:href="#g35" y="9673"/></g><g><use xlink:href="#g1" y="9860"/><use xlink:href="#g13" y="9877"/><use xlink:href="#g14" y="9894"/><use xlink:href="#g15" y="9911"/><use xlink:href="#g16" y="9928"/><use xlink:href="#g17" y="9945"/><use xlink:href="#g18" y="9962"/><use xlink:href="#g1" y="9996"/><rect x="168" y="10013" width="8" height="17" class="color15"/><use xlink:href="#g36" y="10013"/></g><g><use xlink:href="#g1" y="10200"/><use xlink:href="#g13" y="10217"/><use xlink:href="#g14" y="10234"/><use xlink:href="#g15" y="10251"/><use xlink:href="#g16" y="10268"/><use xlink:href="#g17" y="10285"/><use xlink:href="#g18" y="10302"/><use xlink:href="#g1" y="10336"/><rect x="176" y="10353" width="8" height="17" class="color15"/><use xlink:href="#g37" y="10353"/></g><g><use xlink:href="#g1" y="10540"/><use xlink:href="#g13" y="10557"/><use xlink:href="#g14" y="10574"/><use xlink:href="#g15" y="10591"/><use xlink:href="#g16" y="10608"/><use xlink:href="#g17" y="10625"/><use xlink:href="#g18" y="10642"/><use xlink:href="#g1" y="10676"/><rect x="184" y="10693" width="8" height="17" class="color15"/><use xlink:href="#g38" y="10693"/></g><g><use xlink:href="#g1" y="10880"/><use xlink:href="#g13" y="10897"/><use xlink:href="#g14" y="10914"/><use xlink:href="#g15" y="10931"/><use xlink:href="#g16" y="10948"/><use xlink:href="#g17" y="10965"/><use xlink:href="#g18" y="10982"/><use xlink:href="#g1" y="11016"/><rect x="192" y="11033" width="8" height="17" class="color15"/><use xlink:href="#g39" y="11033"/></g><g><use xlink:href="#g1" y="11220"/><use xlink:href="#g13" y="11237"/><use xlink:href="#g14" y="11254"/><use xlink:href="#g15" y="11271"/><use xlink:href="#g16" y="11288"/><use xlink:href="#g17" y="11305"/><use xlink:href="#g18" y="11322"/><use xlink:href="#g1" y="11356"/><rect x="200" y="11373" width="8" height="17" class="color15"/><use xlink:href="#g40" y="11373"/></g><g><use xlink:href="#g1" y="11560"/><use xlink:href="#g13" y="11577"/><use xlink:href="#g14" y="11594"/><use xlink:href="#g15" y="11611"/><use xlink:href="#g16" y="11628"/><use xlink:href="#g17" y="11645"/><use xlink:href="#g18" y="11662"/><use xlink:href="#g1" y="11696"/><rect x="208" y="11713" width="8" height="17" class="color15"/><use xlink:href="#g41" y="11713"/></g><g><use xlink:href="#g1" y="11900"/><use xlink:href="#g13" y="11917"/><use xlink:href="#g14" y="11934"/><use xlink:href="#g15" y="11951"/><use xlink:href="#g16" y="11968"/><use xlink:href="#g17" y="11985"/><use xlink:href="#g18" y="12002"/><use xlink:href="#g1" y="12036"/><rect x="216" y="12053" width="8" height="17" class="color15"/><use xlink:href="#g42" y="12053"/></g><g><use xlink:href="#g1" y="12240"/><use xlink:href="#g13" y="12257"/><use xlink:href="#g14" y="12274"/><use xlink:href="#g15" y="12291"/><use xlink:href="#g16" y="12308"/><use xlink:href="#g17" y="12325"/><use xlink:href="#g18" y="12342"/><use xlink:href="#g1" y="12376"/><rect x="224" y="12393" width="8" height="17" class="color15"/><use xlink:href="#g43" y="12393"/></g><g><use xlink:href="#g1" y="12580"/><use xlink:href="#g13" y="12597"/><use xlink:href="#g14" y="12614"/><use xlink:href="#g15" y="12631"/><use xlink:href="#g16" y="12648"/><use xlink:href="#g17" y="12665"/><use xlink:href="#g18" y="12682"/><use xlink:href="#g1" y="12716"/><rect x="232" y="12733" width="8" height="17" class="color15"/><use xlink:href="#g44" y="12733"/></g><g><use xlink:href="#g1" y="12920"/><use xlink:href="#g13" y="12937"/><use xlink:href="#g14" y="12954"/><use xlink:href="#g15" y="12971"/><use xlink:href="#g16" y="12988"/><use xlink:href="#g17" y="13005"/><use xlink:href="#g18" y="13022"/><use xlink:href="#g1" y="13056"/><rect x="240" y="13073" width="8" height="17" class="color15"/><use xlink:href="#g45" y="13073"/></g><g><use xlink:href="#g1" y="13260"/><use xlink:href="#g13" y="13277"/><use xlink:href="#g14" y="13294"/><use xlink:href="#g15" y="13311"/><use xlink:href="#g16" y="13328"/><use xlink:href="#g17" y="13345"/><use xlink:href="#g18" y="13362"/><use xlink:href="#g1" y="13396"/><use xlink:href="#g46" y="13413"/><rect x="0" y="13430" width="8" height="17" class="color15"/><use xlink:href="#g47" y="13430"/></g><g><use xlink:href="#g1" y="13600"/><use xlink:href="#g13" y="13617"/><use xlink:href="#g14" y="13634"/><use xlink:href="#g15" y="13651"/><use xlink:href="#g16" y="13668"/><use xlink:href="#g17" y="13685"/><use xlink:href="#g18" y="13702"/><use xlink:href="#g1" y="13736"/><use xlink:href="#g46" y="13753"/><use xlink:href="#g48" y="13770"/><use xlink:href="#g1" y="13804"/><rect x="24" y="13821" width="8" height="17" class="color15"/><use xlink:href="#g2" y="13821"/></g><g><use xlink:href="#g1" y="13940"/><use xlink:href="#g13" y="13957"/><use xlink:href="#g14" y="13974"/><use xlink:href="#g15" y="13991"/><use xlink:href="#g16" y="14008"/><use xlink:href="#g17" y="14025"/><use xlink:href="#g18" y="14042"/><use xlink:href="#g1" y="14076"/><use xlink:href="#g46" y="14093"/><use xlink:href="#g48" y="14110"/><use xlink:href="#g1" y="14144"/><rect x="32" y="14161" width="8" height="17" class="color15"/><use xlink:href="#g3" y="14161"/></g><g><use xlink:href="#g1" y="14280"/><use xlink:href="#g13" y="14297"/><use xlink:href="#g14" y="14314"/><use xlink:href="#g15" y="14331"/><use xlink:href="#g16" y="14348"/><use xlink:href="#g17" y="14365"/><use xlink:href="#g18" y="14382"/><use xlink:href="#g1" y="14416"/><use xlink:href="#g46" y="14433"/><use xlink:href="#g48" y="14450"/><use xlink:href="#g1" y="14484"/><rect x="40" y="14501" width="8" height="17" class="color15"/><use xlink:href="#g4" y="14501"/></g><g><use xlink:href="#g1" y="14620"/><use xlink:href="#g13" y="14637"/><use xlink:href="#g14" y="14654"/><use xlink:href="#g15" y="14671"/><use xlink:href="#g16" y="14688"/><use xlink:href="#g17" y="14705"/><use xlink:href="#g18" y="14722"/><use xlink:href="#g1" y="14756"/><use xlink:href="#g46" y="14773"/><use xlink:href="#g48" y="14790"/><use xlink:href="#g1" y="14824"/><rect x="48" y="14841" width="8" height="17" class="color15"/><use xlink:href="#g5" y="14841"/></g><g><use xlink:href="#g1" y="14960"/><use xlink:href="#g13" y="14977"/><use xlink:href="#g14" y="14994"/><use xlink:href="#g15" y="15011"/><use xlink:href="#g16" y="15028"/><use xlink:href="#g17" y="15045"/><use xlink:href="#g18" y="15062"/><use xlink:href="#g1" y="15096"/><use xlink:href="#g46" y="15113"/><use xlink:href="#g48" y="15130"/><use xlink:href="#g1" y="15164"/><rect x="56" y="15181" width="8" height="17" class="color15"/><use xlink:href="#g6" y="15181"/></g><g><use xlink:href="#g1" y="15300"/><use xlink:href="#g13" y="15317"/><use xlink:href="#g14" y="15334"/><use xlink:href="#g15" y="15351"/><use xlink:href="#g16" y="15368"/><use xlink:href="#g17" y="15385"/><use xlink:href="#g18" y="15402"/><use xlink:href="#g1" y="15436"/><use xlink:href="#g46" y="15453"/><use xlink:href="#g48" y="15470"/><use xlink:href="#g1" y="15504"/><rect x="64" y="15521" width="8" height="17" class="color15"/><use xlink:href="#g7" y="15521"/></g><g><use xlink:href="#g1" y="15640"/><use xlink:href="#g13" y="15657"/><use xlink:href="#g14" y="15674"/><use xlink:href="#g15" y="15691"/><use xlink:href="#g16" y="15708"/><use xlink:href="#g17" y="15725"/><use xlink:href="#g18" y="15742"/><use xlink:href="#g1" y="15776"/><use xlink:href="#g46" y="15793"/><use xlink:href="#g48" y="15810"/><use xlink:href="#g1" y="15844"/><rect x="72" y="15861" width="8" height="17" class="color15"/><use xlink:href="#g8" y="15861"/></g><g><use xlink:href="#g1" y="15980"/><use xlink:href="#g13" y="15997"/><use xlink:href="#g14" y="16014"/><use xlink:href="#g15" y="16031"/><use xlink:href="#g16" y="16048"/><use xlink:href="#g17" y="16065"/><use xlink:href="#g18" y="16082"/><use xlink:href="#g1" y="16116"/><use xlink:href="#g46" y="16133"/><use xlink:href="#g48" y="16150"/><use xlink:href="#g1" y="16184"/><rect x="80" y="16201" width="8" height="17" class="color15"/><use xlink:href="#g9" y="16201"/></g><g><use xlink:href="#g1" y="16320"/><use xlink:href="#g13" y="16337"/><use xlink:href="#g14" y="16354"/><use xlink:href="#g15" y="16371"/><use xlink:href="#g16" y="16388"/><use xlink:href="#g17" y="16405"/><use xlink:href="#g18" y="16422"/><use xlink:href="#g1" y="16456"/><use xlink:href="#g46" y="16473"/><use xlink:href="#g48" y="16490"/><use xlink:href="#g1" y="16524"/><rect x="88" y="16541" width="8" height="17" class="color15"/><use xlink:href="#g10" y="16541"/></g><g><use xlink:href="#g1" y="16660"/><use xlink:href="#g13" y="16677"/><use xlink:href="#g14" y="16694"/><use xlink:href="#g15" y="16711"/><use xlink:href="#g16" y="16728"/><use xlink:href="#g17" y="16745"/><use xlink:href="#g18" y="16762"/><use xlink:href="#g1" y="16796"/><use xlink:href="#g46" y="16813"/><use xlink:href="#g48" y="16830"/><use xlink:href="#g1" y="16864"/><rect x="96" y="16881" width="8" height="17" class="color15"/><use xlink:href="#g11" y="16881"/></g><g><use xlink:href="#g1" y="17000"/><use xlink:href="#g13" y="17017"/><use xlink:href="#g14" y="17034"/><use xlink:href="#g15" y="17051"/><use xlink:href="#g16" y="17068"/><use xlink:href="#g17" y="17085"/><use xlink:href="#g18" y="17102"/><use xlink:href="#g1" y="17136"/><use xlink:href="#g46" y="17153"/><use xlink:href="#g48" y="17170"/><use xlink:href="#g1" y="17204"/><rect x="104" y="17221" width="8" height="17" class="color15"/><use xlink:href="#g12" y="17221"/></g><g><use xlink:href="#g1" y="17340"/><use xlink:href="#g13" y="17357"/><use xlink:href="#g14" y="17374"/><use xlink:href="#g15" y="17391"/><use xlink:href="#g16" y="17408"/><use xlink:href="#g17" y="17425"/><use xlink:href="#g18" y="17442"/><use xlink:href="#g1" y="17476"/><use xlink:href="#g46" y="17493"/><use xlink:href="#g48" y="17510"/><use xlink:href="#g1" y="17544"/><use xlink:href="#g13" y="17561"/><rect x="0" y="17578" width="8" height="17" class="color15"/><use xlink:href="#g47" y="17578"/></g><g><use xlink:href="#g15" y="17680"/><use xlink:href="#g16" y="17697"/><use xlink:href="#g17" y="17714"/><use xlink:href="#g18" y="17731"/><use xlink:href="#g1" y="17765"/><use xlink:href="#g46" y="17782"/><use xlink:href="#g48" y="17799"/><use xlink:href="#g1" y="17833"/><use xlink:href="#g13" y="17850"/><use xlink:href="#g14" y="17867"/><use xlink:href="#g15" y="17884"/><use xlink:href="#g16" y="17901"/><use xlink:href="#g17" y="17918"/><use xlink:href="#g1" y="17952"/><rect x="24" y="17969" width="8" height="17" class="color15"/><use xlink:href="#g2" y="17969"/></g><g><use xlink:href="#g17" y="18020"/><use xlink:href="#g18" y="18037"/><use xlink:href="#g1" y="18071"/><use xlink:href="#g46" y="18088"/><use xlink:href="#g48" y="18105"/><use xlink:href="#g1" y="18139"/><use xlink:href="#g13" y="18156"/><use xlink:href="#g14" y="18173"/><use xlink:href="#g15" y="18190"/><use xlink:href="#g16" y="18207"/><use xlink:href="#g17" y="18224"/><use xlink:href="#g1" y="18258"/><use xlink:href="#g49" y="18275"/><rect x="0" y="18309" width="8" height="17" class="color15"/><use xlink:href="#g47" y="18309"/></g></g></svg>
</svg>